<?xml version="1.0" encoding="utf-8"?>
<!-- Generator: Adobe Illustrator 27.7.0, SVG Export Plug-In . SVG Version: 6.00 Build 0)  -->
<svg version="1.1" id="Layer_1" xmlns="http://www.w3.org/2000/svg" xmlns:xlink="http://www.w3.org/1999/xlink" x="0px" y="0px"
	 viewBox="0 0 23 23" style="enable-background:new 0 0 23 23;" xml:space="preserve">
<path id="Account_icon" transform="translate(-6816.563 -387.09)" d="M6827.9,399.2c-3.3,0-6.1-2.7-6.1-6.1c0-3.3,2.7-6.1,6.1-6.1
	s6.1,2.7,6.1,6.1C6834,396.5,6831.3,399.2,6827.9,399.2z M6827.9,388.1c-2.8,0-5.1,2.3-5.1,5.1s2.3,5.1,5.1,5.1s5.1-2.3,5.1-5.1
	S6830.7,388.1,6827.9,388.1z M6838.1,410.1h-20c-0.3,0-0.5-0.2-0.5-0.5v-3.4c0-3.5,4.6-6.3,10.5-6.3c5.8,0,10.5,2.8,10.5,6.3v3.4
	C6838.6,409.9,6838.3,410.1,6838.1,410.1z M6818.6,409.1h19v-2.9c0-2.9-4.3-5.3-9.5-5.3s-9.5,2.4-9.5,5.3V409.1z"/>
</svg>
