<?xml version="1.0" encoding="utf-8"?>
<!-- Generator: Adobe Illustrator 27.7.0, SVG Export Plug-In . SVG Version: 6.00 Build 0)  -->
<svg version="1.1" id="Layer_1" xmlns="http://www.w3.org/2000/svg" xmlns:xlink="http://www.w3.org/1999/xlink" x="0px" y="0px"
	 viewBox="0 0 15 15" style="enable-background:new 0 0 15 15;" xml:space="preserve">
<path id="arrow-right" transform="translate(-10.75 -8.045)" d="M20.4,21.7c-0.1,0-0.2,0-0.3-0.1c-0.2-0.2-0.2-0.5-0.1-0.7l4.2-4.9
	H11.3c-0.3,0-0.5-0.2-0.5-0.5S11,15,11.3,15h12.9L20,10.2C19.8,10,19.8,9.6,20,9.5c0.2-0.2,0.5-0.2,0.7,0.1l4.9,5.7
	c0.1,0.1,0.1,0.2,0.1,0.3l0,0c0,0,0,0,0,0c0,0,0,0,0,0v0c0,0,0,0,0,0l0,0c0,0,0,0,0,0c0,0,0,0,0,0c0,0,0,0,0,0l0,0
	c0,0.1,0,0.2-0.1,0.3l-4.9,5.7C20.6,21.7,20.5,21.7,20.4,21.7z"/>
</svg>
