<?xml version="1.0" encoding="utf-8"?>
<!-- Generator: Adobe Illustrator 27.7.0, SVG Export Plug-In . SVG Version: 6.00 Build 0)  -->
<svg version="1.1" id="Layer_1" xmlns="http://www.w3.org/2000/svg" xmlns:xlink="http://www.w3.org/1999/xlink" x="0px" y="0px"
	 viewBox="0 0 27 27" style="enable-background:new 0 0 27 27;" xml:space="preserve">
<path id="Bag_icon" transform="translate(-3657.801 -792.634)" d="M3676.4,800.3h-1V798c0-2.4-1.8-4.4-4.2-4.4
	c-2.4,0.1-4.2,2-4.2,4.4v2.2h-1V798c0-1.4,0.5-2.7,1.5-3.8c0.9-0.9,2-1.5,3.2-1.6v0l0.5,0c2.9,0.1,5.3,2.5,5.2,5.4V800.3z
	 M3680.1,801h-17.6l-1.7,18.7h21.1L3680.1,801z M3663.4,802h15.8l1.5,16.7h-18.9L3663.4,802z M3666,803.8c0,0.3,0.2,0.5,0.5,0.5
	s0.5-0.2,0.5-0.5s-0.2-0.5-0.5-0.5S3666,803.6,3666,803.8z M3675.5,803.8c0,0.3,0.2,0.5,0.5,0.5s0.5-0.2,0.5-0.5s-0.2-0.5-0.5-0.5
	S3675.5,803.6,3675.5,803.8z"/>
</svg>
