<svg xmlns="http://www.w3.org/2000/svg" width="16" height="15.176" viewBox="0 0 16 15.176">
  <g id="star_outline" data-name="star outline" transform="translate(0 -0.25)" fill="none">
    <path d="M7.981,12.428l-4.946,3L4.347,9.805,0,6.02l5.733-.487L7.981.25,10.23,5.533,16,6.02,11.616,9.805l1.312,5.621Z" stroke="none"/>
    <path d="M 11.41365909576416 13.33890914916992 L 10.50461006164551 9.443393707275391 L 13.54699993133545 6.816938400268555 L 9.545310020446777 6.479233264923096 L 7.981339931488037 2.803909778594971 L 6.417530059814453 6.478883266448975 L 2.437679529190063 6.816935539245605 L 5.457429885864258 9.446203231811523 L 4.549026012420654 13.33890628814697 L 7.981339931488037 11.25861358642578 L 11.41365909576416 13.33890914916992 M 12.92751979827881 15.42578315734863 L 7.981339931488037 12.42795372009277 L 3.035160064697266 15.42578315734863 L 4.346799850463867 9.805123329162598 L 0 6.020393371582031 L 5.73307991027832 5.53342342376709 L 7.981339931488037 0.2500034868717194 L 10.22961044311523 5.53342342376709 L 16 6.020393371582031 L 11.61588954925537 9.805123329162598 L 12.92751979827881 15.42578315734863 Z" stroke="none" fill="#000"/>
  </g>
</svg>
